<svg width="20" height="21" viewBox="0 0 20 21" fill="none" xmlns="http://www.w3.org/2000/svg">
<path d="M10.0297 0.500468C9.85003 0.494604 9.67254 0.543922 9.51782 0.642693L0.497387 6.37373C0.385481 6.43919 0.2869 6.52828 0.207499 6.63571C0.128097 6.74313 0.0694969 6.8667 0.0351788 6.99907C0.000860747 7.13144 -0.00847472 7.26991 0.00772705 7.40625C0.0239288 7.5426 0.0653373 7.67403 0.129492 7.79275C0.193647 7.91147 0.279239 8.01504 0.381184 8.09733C0.483128 8.17961 0.599345 8.23892 0.722928 8.27174C0.846511 8.30455 0.974941 8.3102 1.10058 8.28834C1.22623 8.26649 1.34652 8.21758 1.45432 8.14452V19.4744C1.45435 19.7464 1.5544 20.0072 1.73246 20.1996C1.91052 20.3919 2.15202 20.5 2.40384 20.5H17.5962C17.848 20.5 18.0895 20.3919 18.2675 20.1996C18.4456 20.0072 18.5456 19.7464 18.5457 19.4744V8.14452C18.6535 8.21758 18.7738 8.26649 18.8994 8.28834C19.0251 8.3102 19.1535 8.30455 19.2771 8.27174C19.4007 8.23892 19.5169 8.17961 19.6188 8.09733C19.7208 8.01505 19.8064 7.91147 19.8705 7.79275C19.9347 7.67403 19.9761 7.5426 19.9923 7.40625C20.0085 7.26991 19.9991 7.13144 19.9648 6.99907C19.9305 6.8667 19.8719 6.74313 19.7925 6.63571C19.7131 6.52828 19.6145 6.43919 19.5026 6.37373L10.4822 0.642693C10.3448 0.554968 10.1892 0.506053 10.0297 0.500468ZM10 2.71596L16.6466 6.93862V18.4488H13.7981V11.2694C13.798 10.9974 13.698 10.7366 13.5199 10.5443C13.3419 10.3519 13.1004 10.2439 12.8486 10.2438H7.15144C6.89962 10.2439 6.65812 10.3519 6.48006 10.5443C6.30199 10.7366 6.20195 10.9974 6.20192 11.2694V18.4488H3.35336V6.93862L10 2.71596ZM8.10096 12.2951H11.899V18.4488H8.10096V12.2951Z" fill="white"/>
</svg>
