<svg width="20" height="21" viewBox="0 0 20 21" fill="none" xmlns="http://www.w3.org/2000/svg">
<path d="M14.9832 9.14715L9.99968 8.15045V3.08946C9.99968 1.82608 9.10299 0.726882 7.91378 0.533543C7.18042 0.415206 6.4404 0.618545 5.88122 1.09523C5.3212 1.57108 4.99952 2.26526 4.99952 3.00029V12.6389L4.20366 12.0064C3.19696 11.0664 1.61441 11.1205 0.674384 12.1256C-0.267312 13.1323 -0.214811 14.7173 0.781888 15.6515L3.87365 18.6324C5.12286 19.8366 6.76708 20.5 8.50213 20.5H14.1673C16.4649 20.5 18.3341 18.6308 18.3341 16.3332V13.2323C18.3341 11.253 16.9257 9.53382 14.984 9.14631L14.9832 9.14715ZM16.6666 16.334C16.6666 17.7124 15.5449 18.8341 14.1665 18.8341H8.5013C7.19959 18.8341 5.96705 18.3366 5.03036 17.4332L1.92942 14.444C1.59441 14.129 1.57608 13.5998 1.89109 13.2639C2.04276 13.1023 2.2486 13.0081 2.46944 13.0014C2.47944 13.0014 2.48861 13.0014 2.49861 13.0014C2.70945 13.0014 2.91196 13.0823 3.11446 13.2681L5.31287 15.0182C5.56454 15.2173 5.90538 15.2582 6.19456 15.1165C6.4829 14.9782 6.66541 14.6857 6.66541 14.3665V3.00029C6.66541 2.75528 6.77291 2.5236 6.95958 2.36443C7.14959 2.20359 7.39293 2.13693 7.64461 2.17859C8.03045 2.2411 8.33213 2.64111 8.33213 3.08946V8.8338C8.33213 9.23131 8.61297 9.57299 9.00215 9.65049L14.6557 10.7805C15.8199 11.013 16.6657 12.0456 16.6657 13.2323V16.3332L16.6666 16.334ZM20 3.83365C20 4.29449 19.6275 4.66701 19.1666 4.66701H14.0598L15.1365 5.74454C15.4624 6.07038 15.4624 6.59706 15.1365 6.92291C14.974 7.08541 14.7607 7.16708 14.5473 7.16708C14.334 7.16708 14.1206 7.08541 13.9581 6.92291L12.2306 5.19452C11.8664 4.83118 11.6664 4.34783 11.6664 3.83365C11.6664 3.31946 11.8664 2.83611 12.2314 2.47194L13.9581 0.744383C14.284 0.418539 14.8107 0.418539 15.1365 0.744383C15.4624 1.07023 15.4624 1.59691 15.1365 1.92275L14.0598 3.00029H19.1666C19.6275 3.00029 20 3.3728 20 3.83365Z" fill="white"/>
</svg>
