<svg width="20" height="21" viewBox="0 0 20 21" fill="none" xmlns="http://www.w3.org/2000/svg">
<path d="M9.36075 12.7128C9.15618 14.0103 8.73207 15.3419 8.31545 16.596C8.19903 16.9451 7.87471 17.166 7.52628 17.166C7.4398 17.166 7.35082 17.1518 7.2635 17.1226C6.82775 16.9776 6.59241 16.506 6.73794 16.0685C6.93586 15.4727 7.13627 14.8602 7.30924 14.2486C7.04396 14.2528 6.76455 14.1236 6.60073 13.8778C6.34627 13.4945 6.44938 12.9778 6.83108 12.722L8.07845 11.8887C8.35454 11.7045 8.71128 11.7029 8.9882 11.8804C9.26595 12.0587 9.41231 12.3845 9.36075 12.712V12.7128ZM15.0088 9.20547C15.0088 12.6587 14.1964 15.9069 13.5137 18.0209C13.0355 19.5034 11.6651 20.5 10.1042 20.5H2.80456C1.87236 20.5 0.968429 20.015 0.445365 19.2334C-0.0377841 18.5134 -0.132584 17.6543 0.184248 16.8793C0.86864 15.2027 2.14345 12.082 2.18503 9.23797C2.18836 8.99715 2.29563 8.77049 2.47858 8.61466C2.88689 8.27468 3.50725 8.00135 4.00786 7.99885C4.51679 7.99552 5.02655 8.16718 5.44151 8.51217C5.94711 8.93215 6.67225 8.93215 7.17702 8.51217C8.00028 7.82803 9.1961 7.82803 10.0194 8.51217C10.5241 8.93215 11.2493 8.93215 11.7549 8.51217C12.1723 8.16551 12.6854 7.99385 13.1977 7.99885C13.695 8.00385 14.2629 8.22968 14.6687 8.56716C14.8733 8.71716 14.998 8.95131 15.0088 9.20547ZM13.3424 9.69128C13.1652 9.63879 12.9648 9.67378 12.8176 9.79545C11.7258 10.7046 10.0518 10.7046 8.95826 9.79545C8.75037 9.62212 8.44767 9.62379 8.23978 9.79545C7.14625 10.7046 5.47311 10.7046 4.37958 9.79545C4.22656 9.66878 4.01534 9.63629 3.83323 9.69878C3.70184 12.3345 2.74552 15.0061 1.72184 17.511C1.58047 17.8568 1.726 18.1568 1.82496 18.3051C2.04283 18.6309 2.41788 18.8334 2.80373 18.8334H10.1034C10.9408 18.8334 11.675 18.3009 11.9303 17.5085C12.5465 15.6002 13.2767 12.7312 13.3424 9.69128ZM20 3.83403V15.5002C20 17.3385 18.5081 18.8334 16.6737 18.8334H15.8421C15.3831 18.8334 15.0105 18.4609 15.0105 18.0001C15.0105 17.5393 15.3831 17.1668 15.8421 17.1668H16.6737C17.5909 17.1668 18.3368 16.4193 18.3368 15.5002V6.33309C17.8262 6.33309 17.3564 6.14143 16.9814 5.81978C16.7327 5.60645 16.4259 5.49979 16.119 5.49979C15.8122 5.49979 15.5053 5.60645 15.2567 5.81978C14.8816 6.14143 14.4118 6.33309 13.9012 6.33309C13.3906 6.33309 12.9207 6.14143 12.5457 5.81978C12.2971 5.60645 11.9902 5.49979 11.6834 5.49979C11.3765 5.49979 11.0696 5.60645 10.821 5.81978C10.446 6.14143 9.97612 6.33309 9.46553 6.33309C8.95494 6.33309 8.48509 6.14143 8.11005 5.81978C7.86141 5.60645 7.55455 5.49979 7.2477 5.49979C6.94085 5.49979 6.63399 5.60645 6.38535 5.81978L6.37371 5.82978C5.84399 6.27893 5.02987 5.88644 5.02987 5.19064V3.83319C5.03154 1.99494 6.52339 0.5 8.35786 0.5H16.6737C18.5081 0.5 20 1.99577 20 3.83403ZM18.3368 3.83403C18.3368 2.9149 17.5909 2.16743 16.6737 2.16743H8.35786C7.44063 2.16743 6.6947 2.9149 6.6947 3.83403V3.88069C6.86684 3.85153 7.05062 3.83403 7.24936 3.83403C7.9612 3.83403 8.65224 4.08985 9.1936 4.55483C9.28009 4.62899 9.37239 4.66733 9.46636 4.66733C9.56033 4.66733 9.65263 4.62983 9.73912 4.55483C10.2813 4.08985 10.9715 3.83403 11.6834 3.83403C12.3952 3.83403 13.0862 4.08985 13.6276 4.55483C13.7141 4.62899 13.8064 4.66733 13.9004 4.66733C13.9943 4.66733 14.0866 4.62983 14.1731 4.55483C14.7153 4.08985 15.4055 3.83403 16.1173 3.83403C16.8292 3.83403 17.5202 4.08985 18.0616 4.55483C18.1481 4.62899 18.2404 4.66733 18.3343 4.66733V3.83403H18.3368Z" fill="white"/>
</svg>
