<svg width="20" height="21" viewBox="0 0 20 21" fill="none" xmlns="http://www.w3.org/2000/svg">
<path d="M12.5 2.805V1.33333C12.5 0.8725 12.1267 0.5 11.6667 0.5C11.2067 0.5 10.8333 0.8725 10.8333 1.33333V2.16667H9.16667V1.33333C9.16667 0.8725 8.79333 0.5 8.33333 0.5C7.87333 0.5 7.5 0.8725 7.5 1.33333V2.16667H5.83333V1.33333C5.83333 0.8725 5.46 0.5 5 0.5C4.54 0.5 4.16667 0.8725 4.16667 1.33333V2.16667H2.5V1.33333C2.5 0.8725 2.12667 0.5 1.66667 0.5C1.20667 0.5 0.833333 0.8725 0.833333 1.33333V2.805C0.3225 3.26333 0 3.9275 0 4.66667V16.3333C0 18.6308 1.86917 20.5 4.16667 20.5H9.16667C11.4642 20.5 13.3333 18.6308 13.3333 16.3333V4.66667C13.3333 3.92833 13.0108 3.26333 12.5 2.805ZM11.6667 16.3333C11.6667 17.7117 10.545 18.8333 9.16667 18.8333H4.16667C2.78833 18.8333 1.66667 17.7117 1.66667 16.3333V4.66667C1.66667 4.20667 2.04083 3.83333 2.5 3.83333H10.8333C11.2925 3.83333 11.6667 4.20667 11.6667 4.66667V16.3333ZM10 7.16667C10 7.6275 9.62667 8 9.16667 8H4.16667C3.70667 8 3.33333 7.6275 3.33333 7.16667C3.33333 6.70583 3.70667 6.33333 4.16667 6.33333H9.16667C9.62667 6.33333 10 6.70583 10 7.16667ZM10 10.5C10 10.9608 9.62667 11.3333 9.16667 11.3333H4.16667C3.70667 11.3333 3.33333 10.9608 3.33333 10.5C3.33333 10.0392 3.70667 9.66667 4.16667 9.66667H9.16667C9.62667 9.66667 10 10.0392 10 10.5ZM7.5 13.8333C7.5 14.2942 7.12667 14.6667 6.66667 14.6667H4.16667C3.70667 14.6667 3.33333 14.2942 3.33333 13.8333C3.33333 13.3725 3.70667 13 4.16667 13H6.66667C7.12667 13 7.5 13.3725 7.5 13.8333ZM17.5 0.5C16.1217 0.5 15 1.62167 15 3V16.965C15 17.8433 15.3558 18.7017 15.9767 19.3217L16.9108 20.2558C17.0733 20.4183 17.2867 20.5 17.5 20.5C17.7133 20.5 17.9267 20.4183 18.0892 20.2558L19.0233 19.3217C19.6442 18.7017 20 17.8433 20 16.965V3C20 1.62167 18.8783 0.5 17.5 0.5ZM18.3333 16.965C18.3333 17.4033 18.1558 17.8333 17.845 18.1433L17.5 18.4883L17.155 18.1433C16.8442 17.8333 16.6667 17.4033 16.6667 16.965V3C16.6667 2.54 17.0408 2.16667 17.5 2.16667C17.9592 2.16667 18.3333 2.54 18.3333 3V16.965Z" fill="white"/>
</svg>
