<svg width="336" height="46" viewBox="0 0 336 46" fill="none" xmlns="http://www.w3.org/2000/svg">
<path d="M23.418 29.8682V38.0176L19.5117 39.999V33.9668L14.457 37.1367L12.1592 36.0352L10.4355 35.1543L23.417 27.7754L23.418 29.8682ZM27.6934 23.1318L29.1738 23.9756V23.9766L35 27.2969L34.7812 31.5283L29.3721 28.4463L29.6318 34.2285L27.4697 35.5596L25.7988 36.5293L25.8164 22.0635L27.6934 23.1318ZM17.2607 28.7822L15.3652 29.8184L13.8672 30.6357V30.6348L7.97656 33.8516L4.24707 31.5791L9.71484 28.5938L4.3418 25.9521L4.20215 23.4932L4.14844 21.6211L17.2607 28.7822ZM34.9248 14.707L29.4062 17.6035L34.7334 20.3311L34.8291 22.792L34.8516 24.6641L21.8662 17.293L23.7793 16.2871L31.2344 12.375L34.9248 14.707ZM13.1875 23.8555L11.3096 22.7881L9.82812 21.9453V21.9434L4 18.627L4.21582 14.3955L9.62598 17.4736L9.36328 11.6914L11.5234 10.3594L13.1934 9.38867L13.1875 23.8555ZM19.4482 12.0332L24.5293 8.90137L26.8184 10.0205L28.5332 10.9141L15.4922 18.1943L15.5088 16.1016L15.5762 7.95215L19.498 6.00098L19.4482 12.0332Z" fill="#1C1B1B"/>
<path d="M68.502 25.6992H54.0527V21.0938H68.502V25.6992ZM70.541 15.3633H52.2246V36H47.6543V13.0957C47.6543 12.7793 47.7129 12.4805 47.8301 12.1992C47.9473 11.918 48.1055 11.6719 48.3047 11.4609C48.5156 11.25 48.7617 11.0859 49.043 10.9688C49.3242 10.8516 49.6289 10.793 49.957 10.793H70.541V15.3633ZM100.512 25.8047C100.512 27.3398 100.248 28.752 99.7207 30.041C99.1934 31.3301 98.4609 32.4434 97.5234 33.3809C96.5859 34.3184 95.4727 35.0508 94.1836 35.5781C92.9062 36.0938 91.5117 36.3516 90 36.3516H83.8125C82.3008 36.3516 80.9004 36.0938 79.6113 35.5781C78.3223 35.0508 77.209 34.3184 76.2715 33.3809C75.334 32.4434 74.5957 31.3301 74.0566 30.041C73.5293 28.752 73.2656 27.3398 73.2656 25.8047V20.9883C73.2656 19.4648 73.5293 18.0586 74.0566 16.7695C74.5957 15.4688 75.334 14.3555 76.2715 13.4297C77.209 12.4922 78.3223 11.7598 79.6113 11.2324C80.9004 10.7051 82.3008 10.4414 83.8125 10.4414H90C91.5117 10.4414 92.9062 10.7051 94.1836 11.2324C95.4727 11.7598 96.5859 12.4922 97.5234 13.4297C98.4609 14.3555 99.1934 15.4688 99.7207 16.7695C100.248 18.0586 100.512 19.4648 100.512 20.9883V25.8047ZM95.9414 20.9883C95.9414 20.0859 95.7949 19.2715 95.502 18.5449C95.2207 17.8066 94.8164 17.1797 94.2891 16.6641C93.7734 16.1367 93.1465 15.7324 92.4082 15.4512C91.6816 15.1582 90.8789 15.0117 90 15.0117H83.8125C82.9219 15.0117 82.1074 15.1582 81.3691 15.4512C80.6426 15.7324 80.0156 16.1367 79.4883 16.6641C78.9609 17.1797 78.5508 17.8066 78.2578 18.5449C77.9766 19.2715 77.8359 20.0859 77.8359 20.9883V25.8047C77.8359 26.707 77.9766 27.5273 78.2578 28.2656C78.5508 28.9922 78.9609 29.6191 79.4883 30.1465C80.0156 30.6621 80.6426 31.0664 81.3691 31.3594C82.1074 31.6406 82.9219 31.7812 83.8125 31.7812H89.9648C90.8555 31.7812 91.6641 31.6406 92.3906 31.3594C93.1289 31.0664 93.7617 30.6621 94.2891 30.1465C94.8164 29.6191 95.2207 28.9922 95.502 28.2656C95.7949 27.5273 95.9414 26.707 95.9414 25.8047V20.9883ZM127.6 36H111.111C110.689 36 110.232 35.9531 109.74 35.8594C109.26 35.7539 108.779 35.5957 108.299 35.3848C107.83 35.1738 107.379 34.9043 106.945 34.5762C106.512 34.2363 106.125 33.832 105.785 33.3633C105.457 32.8828 105.193 32.332 104.994 31.7109C104.795 31.0781 104.695 30.3691 104.695 29.584V17.209C104.695 16.7871 104.742 16.3359 104.836 15.8555C104.941 15.3633 105.1 14.8828 105.311 14.4141C105.521 13.9336 105.797 13.4766 106.137 13.043C106.477 12.6094 106.881 12.2285 107.35 11.9004C107.83 11.5605 108.381 11.291 109.002 11.0918C109.623 10.8926 110.326 10.793 111.111 10.793H127.6V15.3633H111.111C110.514 15.3633 110.057 15.5215 109.74 15.8379C109.424 16.1543 109.266 16.623 109.266 17.2441V29.584C109.266 30.1699 109.424 30.627 109.74 30.9551C110.068 31.2715 110.525 31.4297 111.111 31.4297H127.6V36ZM156.621 33.6973C156.621 34.0254 156.562 34.3301 156.445 34.6113C156.328 34.8926 156.164 35.1387 155.953 35.3496C155.742 35.5488 155.496 35.707 155.215 35.8242C154.934 35.9414 154.635 36 154.318 36H144.018C143.045 36 142.061 35.8945 141.064 35.6836C140.068 35.4727 139.102 35.1504 138.164 34.7168C137.238 34.2715 136.365 33.709 135.545 33.0293C134.725 32.3496 134.004 31.5469 133.383 30.6211C132.773 29.6836 132.293 28.6172 131.941 27.4219C131.59 26.2148 131.414 24.873 131.414 23.3965V10.793H135.984V23.3965C135.984 24.6855 136.16 25.7754 136.512 26.666C136.875 27.5566 137.332 28.3008 137.883 28.8984C138.434 29.4961 139.037 29.9648 139.693 30.3047C140.35 30.6445 140.971 30.8965 141.557 31.0605C142.154 31.2246 142.676 31.3301 143.121 31.377C143.578 31.4121 143.877 31.4297 144.018 31.4297H152.051V10.793H156.621V33.6973ZM186.17 28.582C186.17 29.4844 186.053 30.2988 185.818 31.0254C185.596 31.7402 185.297 32.373 184.922 32.9238C184.547 33.4746 184.107 33.9434 183.604 34.3301C183.1 34.7168 182.578 35.0332 182.039 35.2793C181.5 35.5254 180.949 35.707 180.387 35.8242C179.836 35.9414 179.314 36 178.822 36H161.191V31.4297H178.822C179.701 31.4297 180.381 31.1719 180.861 30.6562C181.354 30.1406 181.6 29.4492 181.6 28.582C181.6 28.1602 181.535 27.7734 181.406 27.4219C181.277 27.0703 181.09 26.7656 180.844 26.5078C180.609 26.25 180.316 26.0508 179.965 25.9102C179.625 25.7695 179.244 25.6992 178.822 25.6992H168.311C167.572 25.6992 166.775 25.5703 165.92 25.3125C165.064 25.043 164.268 24.6152 163.529 24.0293C162.803 23.4434 162.193 22.6758 161.701 21.7266C161.221 20.7773 160.98 19.6172 160.98 18.2461C160.98 16.875 161.221 15.7207 161.701 14.7832C162.193 13.834 162.803 13.0664 163.529 12.4805C164.268 11.8828 165.064 11.4551 165.92 11.1973C166.775 10.9277 167.572 10.793 168.311 10.793H183.867V15.3633H168.311C167.443 15.3633 166.764 15.627 166.271 16.1543C165.791 16.6816 165.551 17.3789 165.551 18.2461C165.551 19.125 165.791 19.8223 166.271 20.3379C166.764 20.8418 167.443 21.0938 168.311 21.0938H178.822H178.857C179.35 21.1055 179.871 21.1758 180.422 21.3047C180.973 21.4219 181.518 21.6094 182.057 21.8672C182.607 22.125 183.129 22.4531 183.621 22.8516C184.113 23.2383 184.547 23.707 184.922 24.2578C185.309 24.8086 185.613 25.4414 185.836 26.1562C186.059 26.8711 186.17 27.6797 186.17 28.582ZM215.086 21.3398C215.086 22.3828 214.957 23.3145 214.699 24.1348C214.441 24.9551 214.09 25.6816 213.645 26.3145C213.211 26.9355 212.707 27.4688 212.133 27.9141C211.559 28.3594 210.955 28.7227 210.322 29.0039C209.701 29.2852 209.068 29.4902 208.424 29.6191C207.791 29.748 207.193 29.8125 206.631 29.8125H196.295V25.2422H206.631C207.217 25.1953 207.744 25.0781 208.213 24.8906C208.693 24.6914 209.104 24.4277 209.443 24.0996C209.783 23.7715 210.047 23.3789 210.234 22.9219C210.422 22.4531 210.516 21.9258 210.516 21.3398V19.2656C210.457 18.6914 210.334 18.1641 210.146 17.6836C209.959 17.2031 209.701 16.793 209.373 16.4531C209.057 16.1133 208.67 15.8496 208.213 15.6621C207.756 15.4629 207.229 15.3633 206.631 15.3633H196.33C195.721 15.3633 195.258 15.5215 194.941 15.8379C194.625 16.1543 194.467 16.6113 194.467 17.209V36H189.896V17.209C189.896 16.0371 190.107 15.041 190.529 14.2207C190.963 13.4004 191.496 12.7383 192.129 12.2344C192.773 11.7305 193.471 11.3672 194.221 11.1445C194.971 10.9102 195.662 10.793 196.295 10.793H206.631C207.662 10.793 208.588 10.9277 209.408 11.1973C210.229 11.4551 210.949 11.8066 211.57 12.252C212.203 12.6855 212.736 13.1895 213.17 13.7637C213.615 14.3379 213.979 14.9414 214.26 15.5742C214.553 16.1953 214.764 16.8281 214.893 17.4727C215.021 18.1055 215.086 18.7031 215.086 19.2656V21.3398ZM223.611 21.0938H239.66V10.793H244.23V36H239.66V25.6992H223.611V36H219.041V10.793H223.611V21.0938ZM270.316 25.6992H255.885V21.0938H270.316V25.6992ZM272.373 36H255.885C255.252 36 254.561 35.8887 253.811 35.666C253.061 35.4434 252.363 35.0801 251.719 34.5762C251.086 34.0605 250.553 33.3984 250.119 32.5898C249.697 31.7695 249.486 30.7676 249.486 29.584V13.0957C249.486 12.7793 249.545 12.4805 249.662 12.1992C249.779 11.918 249.938 11.6719 250.137 11.4609C250.348 11.25 250.594 11.0859 250.875 10.9688C251.156 10.8516 251.461 10.793 251.789 10.793H272.373V15.3633H254.057V29.584C254.057 30.1816 254.215 30.6387 254.531 30.9551C254.848 31.2715 255.311 31.4297 255.92 31.4297H272.373V36ZM301.992 19.2656C301.992 20.3086 301.863 21.2402 301.605 22.0605C301.348 22.8809 300.996 23.6074 300.551 24.2402C300.117 24.8613 299.613 25.3945 299.039 25.8398C298.465 26.2852 297.861 26.6543 297.229 26.9473C296.607 27.2285 295.975 27.4336 295.33 27.5625C294.697 27.6914 294.1 27.7559 293.537 27.7559L303.082 36H296.016L286.488 27.7559H283.201V23.1855H293.537C294.111 23.1387 294.633 23.0215 295.102 22.834C295.582 22.6348 295.992 22.3711 296.332 22.043C296.684 21.7148 296.953 21.3223 297.141 20.8652C297.328 20.3965 297.422 19.8633 297.422 19.2656V16.3828C297.422 16.125 297.387 15.9316 297.316 15.8027C297.258 15.6621 297.176 15.5625 297.07 15.5039C296.977 15.4336 296.871 15.3926 296.754 15.3809C296.648 15.3691 296.549 15.3633 296.455 15.3633H281.373V36H276.803V13.0957C276.803 12.7793 276.861 12.4805 276.979 12.1992C277.096 11.918 277.254 11.6719 277.453 11.4609C277.664 11.25 277.91 11.0859 278.191 10.9688C278.473 10.8516 278.777 10.793 279.105 10.793H296.455C297.475 10.793 298.336 10.9805 299.039 11.3555C299.742 11.7188 300.311 12.1816 300.744 12.7441C301.189 13.2949 301.506 13.8926 301.693 14.5371C301.893 15.1816 301.992 15.7852 301.992 16.3477V19.2656ZM327.305 25.6992H312.873V21.0938H327.305V25.6992ZM329.361 36H312.873C312.24 36 311.549 35.8887 310.799 35.666C310.049 35.4434 309.352 35.0801 308.707 34.5762C308.074 34.0605 307.541 33.3984 307.107 32.5898C306.686 31.7695 306.475 30.7676 306.475 29.584V13.0957C306.475 12.7793 306.533 12.4805 306.65 12.1992C306.768 11.918 306.926 11.6719 307.125 11.4609C307.336 11.25 307.582 11.0859 307.863 10.9688C308.145 10.8516 308.449 10.793 308.777 10.793H329.361V15.3633H311.045V29.584C311.045 30.1816 311.203 30.6387 311.52 30.9551C311.836 31.2715 312.299 31.4297 312.908 31.4297H329.361V36Z" fill="#1C1B1B"/>
</svg>
