<svg width="20" height="21" viewBox="0 0 20 21" fill="none" xmlns="http://www.w3.org/2000/svg">
<path d="M15.546 1.27498L5.38603 11.435C4.99798 11.8209 4.69035 12.28 4.48093 12.7857C4.27152 13.2913 4.16449 13.8335 4.16603 14.3808V15.5C4.16603 15.721 4.25383 15.9329 4.41011 16.0892C4.56639 16.2455 4.77835 16.3333 4.99936 16.3333H6.11853C6.66583 16.3348 7.208 16.2278 7.71366 16.0184C8.21932 15.809 8.67841 15.5013 9.06436 15.1133L19.2244 4.95331C19.7113 4.46512 19.9848 3.8037 19.9848 3.11414C19.9848 2.42458 19.7113 1.76317 19.2244 1.27498C18.7291 0.801557 18.0703 0.537354 17.3852 0.537354C16.7 0.537354 16.0413 0.801557 15.546 1.27498ZM18.046 3.77498L7.88603 13.935C7.41613 14.402 6.78104 14.6649 6.11853 14.6666H5.8327V14.3808C5.83443 13.7183 6.09734 13.0832 6.56436 12.6133L16.7244 2.45331C16.9023 2.28327 17.139 2.18839 17.3852 2.18839C17.6313 2.18839 17.868 2.28327 18.046 2.45331C18.221 2.62874 18.3192 2.86639 18.3192 3.11414C18.3192 3.3619 18.221 3.59955 18.046 3.77498Z" fill="white"/>
<path d="M19.1667 7.98249C18.9456 7.98249 18.7337 8.07029 18.5774 8.22657C18.4211 8.38285 18.3333 8.59481 18.3333 8.81583V13H15C14.3369 13 13.7011 13.2634 13.2322 13.7322C12.7634 14.2011 12.5 14.8369 12.5 15.5V18.8333H4.16666C3.50362 18.8333 2.86774 18.5699 2.3989 18.1011C1.93006 17.6322 1.66667 16.9964 1.66667 16.3333V4.66666C1.66667 4.00362 1.93006 3.36774 2.3989 2.8989C2.86774 2.43006 3.50362 2.16667 4.16666 2.16667H11.7017C11.9227 2.16667 12.1346 2.07887 12.2909 1.92259C12.4472 1.76631 12.535 1.55435 12.535 1.33333C12.535 1.11232 12.4472 0.900358 12.2909 0.744077C12.1346 0.587797 11.9227 0.5 11.7017 0.5H4.16666C3.062 0.501323 2.00296 0.940735 1.22185 1.72185C0.440735 2.50296 0.00132321 3.562 0 4.66666L0 16.3333C0.00132321 17.438 0.440735 18.497 1.22185 19.2781C2.00296 20.0592 3.062 20.4987 4.16666 20.5H13.6192C14.1666 20.5015 14.7089 20.3945 15.2147 20.1851C15.7205 19.9757 16.1797 19.6681 16.5658 19.28L18.7792 17.065C19.1673 16.679 19.475 16.22 19.6846 15.7143C19.8941 15.2087 20.0013 14.6665 20 14.1192V8.81583C20 8.59481 19.9122 8.38285 19.7559 8.22657C19.5996 8.07029 19.3877 7.98249 19.1667 7.98249ZM15.3875 18.1017C15.0525 18.4358 14.6289 18.6672 14.1667 18.7683V15.5C14.1667 15.279 14.2545 15.067 14.4107 14.9107C14.567 14.7545 14.779 14.6667 15 14.6667H18.2708C18.1677 15.1279 17.9367 15.5508 17.6042 15.8867L15.3875 18.1017Z" fill="white"/>
</svg>
