<svg width="20" height="21" viewBox="0 0 20 21" fill="none" xmlns="http://www.w3.org/2000/svg">
<path d="M15.8333 0.5H4.16667C1.86917 0.5 0 2.36917 0 4.66667V16.3333C0 18.6308 1.86917 20.5 4.16667 20.5H15.8333C18.1342 20.5 20 18.6342 20 16.3333V4.66667C20 2.36917 18.1308 0.5 15.8333 0.5ZM18.3333 4.66667V5.5H6.66667V2.16667H15.8333C17.2117 2.16667 18.3333 3.28833 18.3333 4.66667ZM6.81 9.31333C7.12417 8.98667 7.64083 8.97167 7.97417 9.27833L8.41083 9.68083L9.7375 8.30333C10.0633 7.965 10.6042 7.9625 10.9333 8.29833C11.2483 8.62 11.25 9.13417 10.9383 9.45833L9.58333 10.8658L9.58 10.8692C8.96 11.4892 7.865 11.4908 7.2275 10.8533L6.84667 10.5033C6.5025 10.1867 6.48583 9.64917 6.81 9.3125V9.31333ZM4.16667 2.16667H5V5.5H1.66667V4.66667C1.66667 3.28833 2.78833 2.16667 4.16667 2.16667ZM1.66667 16.3333V7.16667H5V18.8333H4.16667C2.78833 18.8333 1.66667 17.7117 1.66667 16.3333ZM18.4383 16.125L17.0833 17.5325L17.08 17.5358C16.46 18.1558 15.365 18.1575 14.7275 17.52L14.3467 17.17C14.0025 16.8533 13.9858 16.3158 14.31 15.9792C14.6242 15.6525 15.1408 15.6375 15.4742 15.9442L15.9108 16.3467L17.2375 14.9692C17.5633 14.6308 18.1042 14.6283 18.4333 14.9642C18.7483 15.2858 18.75 15.8008 18.4383 16.125ZM12.5 13V18.8333H6.66667V13H12.5V7.16667H18.3333V13H12.5Z" fill="white"/>
</svg>
