<svg width="20" height="21" viewBox="0 0 20 21" fill="none" xmlns="http://www.w3.org/2000/svg">
<path d="M15.8333 0.5H4.16667C1.86917 0.5 0 2.36917 0 4.66667V16.3333C0 18.6308 1.86917 20.5 4.16667 20.5H15.8333C18.1308 20.5 20 18.6308 20 16.3333V4.66667C20 2.36917 18.1308 0.5 15.8333 0.5ZM18.3333 16.3333C18.3333 17.7117 17.2117 18.8333 15.8333 18.8333H4.16667C2.78833 18.8333 1.66667 17.7117 1.66667 16.3333V4.66667C1.66667 4.37333 1.72667 4.095 1.82 3.83333H18.18C18.2733 4.095 18.3333 4.37333 18.3333 4.66667V16.3333ZM3.33333 7.16667C3.33333 6.70667 3.70583 6.33333 4.16667 6.33333H6.66667C7.1275 6.33333 7.5 6.70667 7.5 7.16667C7.5 7.62667 7.1275 8 6.66667 8H4.16667C3.70583 8 3.33333 7.62667 3.33333 7.16667ZM11.6667 11.3333C11.6667 11.7942 11.2942 12.1667 10.8333 12.1667H5.83333C5.3725 12.1667 5 11.7942 5 11.3333C5 10.8725 5.3725 10.5 5.83333 10.5H10.8333C11.2942 10.5 11.6667 10.8733 11.6667 11.3333ZM11.6667 15.5C11.6667 15.9608 11.2942 16.3333 10.8333 16.3333H4.16667C3.70583 16.3333 3.33333 15.9608 3.33333 15.5C3.33333 15.0392 3.70583 14.6667 4.16667 14.6667H10.8333C11.2942 14.6667 11.6667 15.0392 11.6667 15.5ZM16.6667 15.5C16.6667 16.4208 15.9208 17.1667 15 17.1667C14.0792 17.1667 13.3333 16.4208 13.3333 15.5C13.3333 14.885 13.6708 14.3533 14.1667 14.0642V8.83333C14.1667 8.37417 13.7933 8 13.3333 8H12.2692C11.9808 8.49583 11.4492 8.83333 10.8333 8.83333C9.9125 8.83333 9.16667 8.0875 9.16667 7.16667C9.16667 6.24583 9.9125 5.5 10.8333 5.5C11.4483 5.5 11.98 5.8375 12.2692 6.33333H13.3333C14.7117 6.33333 15.8333 7.455 15.8333 8.83333V14.0642C16.3292 14.3525 16.6667 14.8842 16.6667 15.5Z" fill="white"/>
</svg>
