<svg width="20" height="20" viewBox="0 0 20 20" fill="none" xmlns="http://www.w3.org/2000/svg">
<path d="M14.9832 8.64715L9.99968 7.65045V2.58946C9.99968 1.32608 9.10299 0.226882 7.91378 0.0335427C7.18042 -0.0847943 6.4404 0.118545 5.88122 0.595227C5.3212 1.07108 4.99952 1.76526 4.99952 2.50029V12.1389L4.20366 11.5064C3.19696 10.5664 1.61441 10.6205 0.674384 11.6256C-0.267312 12.6323 -0.214811 14.2173 0.781888 15.1515L3.87365 18.1324C5.12286 19.3366 6.76708 20 8.50213 20H14.1673C16.4649 20 18.3341 18.1308 18.3341 15.8332V12.7323C18.3341 10.753 16.9257 9.03382 14.984 8.64631L14.9832 8.64715ZM16.6666 15.834C16.6666 17.2124 15.5449 18.3341 14.1665 18.3341H8.5013C7.19959 18.3341 5.96705 17.8366 5.03036 16.9332L1.92942 13.944C1.59441 13.629 1.57608 13.0998 1.89109 12.7639C2.04276 12.6023 2.2486 12.5081 2.46944 12.5014C2.47944 12.5014 2.48861 12.5014 2.49861 12.5014C2.70945 12.5014 2.91196 12.5823 3.11446 12.7681L5.31287 14.5182C5.56371 14.7173 5.90538 14.7582 6.19456 14.6165C6.4829 14.4782 6.66541 14.1857 6.66541 13.8665V2.50029C6.66541 2.25528 6.77291 2.0236 6.95958 1.86443C7.14959 1.70359 7.39293 1.63693 7.64461 1.67859C8.03045 1.7411 8.33213 2.14111 8.33213 2.58946V8.3338C8.33213 8.73131 8.61297 9.07299 9.00215 9.15049L14.6557 10.2805C15.8199 10.513 16.6657 11.5456 16.6657 12.7323V15.8332L16.6666 15.834ZM20 3.33365C20 3.84783 19.8 4.33118 19.435 4.69535L17.7083 6.42291C17.5458 6.58541 17.3324 6.66708 17.1191 6.66708C16.9057 6.66708 16.6924 6.58541 16.5299 6.42291C16.204 6.09706 16.204 5.57038 16.5299 5.24454L17.6066 4.16701H12.4998C12.0389 4.16701 11.6664 3.79449 11.6664 3.33365C11.6664 2.8728 12.0389 2.50029 12.4998 2.50029H17.6066L16.5299 1.42275C16.204 1.09691 16.204 0.570226 16.5299 0.244383C16.8557 -0.0814609 17.3824 -0.0814609 17.7083 0.244383L19.4358 1.97277C19.8 2.33611 20 2.81946 20 3.33365Z" fill="white"/>
</svg>
