<svg width="20" height="21" viewBox="0 0 20 21" fill="none" xmlns="http://www.w3.org/2000/svg">
<path d="M10.8337 2.212V1.33634C10.8337 1.11537 10.7459 0.903452 10.5896 0.747203C10.4333 0.590954 10.2214 0.503174 10.0003 0.503174C9.77933 0.503174 9.56737 0.590954 9.41109 0.747203C9.25481 0.903452 9.16701 1.11537 9.16701 1.33634V2.212C7.4893 2.36238 5.88568 2.97285 4.5328 3.97616C3.17993 4.97948 2.13032 6.33669 1.49961 7.89826C0.868908 9.45984 0.681586 11.1652 0.958285 12.8264C1.23498 14.4876 1.96497 16.0402 3.0678 17.3132C2.63228 17.5286 2.26832 17.8653 2.01978 18.2827C1.77125 18.7002 1.64872 19.1805 1.66696 19.666C1.66696 19.887 1.75476 20.0989 1.91104 20.2552C2.06732 20.4114 2.27928 20.4992 2.5003 20.4992C2.72132 20.4992 2.93328 20.4114 3.08956 20.2552C3.24584 20.0989 3.33364 19.887 3.33364 19.666C3.32671 19.4092 3.41893 19.1596 3.59116 18.9689C3.76338 18.7783 4.00241 18.6612 4.25864 18.642C4.31596 18.6311 4.37187 18.6138 4.42531 18.5904C6.0216 19.8282 7.98436 20.5 10.0045 20.5C12.0247 20.5 13.9874 19.8282 15.5837 18.5904C15.6325 18.6129 15.6833 18.6307 15.7354 18.6437C15.9925 18.6612 16.233 18.7774 16.4065 18.9678C16.5801 19.1583 16.6735 19.4084 16.6671 19.666C16.6671 19.887 16.7549 20.0989 16.9111 20.2552C17.0674 20.4114 17.2794 20.4992 17.5004 20.4992C17.7214 20.4992 17.9334 20.4114 18.0897 20.2552C18.2459 20.0989 18.3337 19.887 18.3337 19.666C18.352 19.1805 18.2295 18.7002 17.9809 18.2827C17.7324 17.8653 17.3684 17.5286 16.9329 17.3132C18.0357 16.0402 18.7657 14.4876 19.0424 12.8264C19.3191 11.1652 19.1318 9.45984 18.5011 7.89826C17.8704 6.33669 16.8208 4.97948 15.4679 3.97616C14.115 2.97285 12.5114 2.36238 10.8337 2.212ZM2.5003 11.3343C2.5003 9.85128 2.94017 8.40152 3.76429 7.1684C4.5884 5.93528 5.75975 4.97417 7.1302 4.40663C8.50066 3.83909 10.0087 3.69059 11.4635 3.97992C12.9184 4.26925 14.2548 4.98342 15.3037 6.0321C16.3526 7.08079 17.0669 8.41689 17.3563 9.87146C17.6457 11.326 17.4972 12.8337 16.9295 14.2039C16.3618 15.5741 15.4005 16.7452 14.1672 17.5691C12.9338 18.3931 11.4837 18.8328 10.0003 18.8328C8.01196 18.8304 6.1057 18.0396 4.69969 16.6339C3.29369 15.2282 2.50273 13.3223 2.5003 11.3343Z" fill="white"/>
<path d="M16.013 0.503135C15.792 0.503135 15.58 0.590915 15.4238 0.747164C15.2675 0.903413 15.1797 1.11533 15.1797 1.3363C15.1797 1.55727 15.2675 1.76919 15.4238 1.92544C15.58 2.08169 15.792 2.16947 16.013 2.16947C16.3036 2.14738 16.5957 2.18436 16.8716 2.27818C17.1475 2.372 17.4015 2.52071 17.6184 2.71534C17.8353 2.90998 18.0105 3.14651 18.1334 3.41068C18.2564 3.67484 18.3246 3.96116 18.3339 4.25239C18.3339 4.47336 18.4217 4.68527 18.578 4.84152C18.7342 4.99777 18.9462 5.08555 19.1672 5.08555C19.3882 5.08555 19.6002 4.99777 19.7565 4.84152C19.9128 4.68527 20.0006 4.47336 20.0006 4.25239C19.9899 3.7429 19.8777 3.24066 19.6706 2.77504C19.4634 2.30942 19.1655 1.88978 18.7942 1.54066C18.4229 1.19155 17.9857 0.919973 17.5081 0.741824C17.0306 0.563674 16.5223 0.482529 16.013 0.503135Z" fill="white"/>
<path d="M1.66668 4.25239C1.67597 3.96116 1.74415 3.67484 1.86711 3.41068C1.99007 3.14651 2.16527 2.90998 2.38214 2.71534C2.59901 2.52071 2.85306 2.372 3.12897 2.27818C3.40488 2.18436 3.69693 2.14738 3.98753 2.16947C4.20854 2.16947 4.4205 2.08169 4.57679 1.92544C4.73307 1.76919 4.82086 1.55727 4.82086 1.3363C4.82086 1.11533 4.73307 0.903413 4.57679 0.747164C4.4205 0.590915 4.20854 0.503135 3.98753 0.503135C3.47824 0.482529 2.96996 0.563674 2.49242 0.741824C2.01488 0.919973 1.57766 1.19155 1.20636 1.54066C0.835062 1.88978 0.537126 2.30942 0.329986 2.77504C0.122847 3.24066 0.0106636 3.7429 0 4.25239C0 4.47336 0.087798 4.68527 0.244079 4.84152C0.400361 4.99777 0.612324 5.08555 0.833339 5.08555C1.05435 5.08555 1.26632 4.99777 1.4226 4.84152C1.57888 4.68527 1.66668 4.47336 1.66668 4.25239Z" fill="white"/>
<path d="M10.8327 10.1563V6.33536C10.8327 6.11439 10.7449 5.90248 10.5886 5.74623C10.4323 5.58998 10.2204 5.5022 9.99935 5.5022C9.77834 5.5022 9.56638 5.58998 9.4101 5.74623C9.25381 5.90248 9.16602 6.11439 9.16602 6.33536V10.5012C9.16606 10.7221 9.25389 10.934 9.41018 11.0902L11.9102 13.5897C12.0674 13.7415 12.2779 13.8255 12.4964 13.8236C12.7149 13.8217 12.9239 13.7341 13.0784 13.5796C13.2329 13.4251 13.3205 13.2162 13.3224 12.9977C13.3243 12.7792 13.2403 12.5688 13.0885 12.4117L10.8327 10.1563Z" fill="white"/>
</svg>
