<svg xmlns="http://www.w3.org/2000/svg" version="1.1" xmlns:xlink="http://www.w3.org/1999/xlink" width="1000" height="1000"><g clip-path="url(#SvgjsClipPath1113)"><rect width="1000" height="1000" fill="#ffffff"></rect><g transform="matrix(26.470588235294116,0,0,26.470588235294116,89.70588235294122,50)"><svg xmlns="http://www.w3.org/2000/svg" version="1.1" xmlns:xlink="http://www.w3.org/1999/xlink" width="31" height="34"><svg width="31" height="34" viewBox="0 0 31 34" fill="none" xmlns="http://www.w3.org/2000/svg">
<path d="M19.418 23.8672V32.0166L15.5117 33.998V27.9658L10.457 31.1357L8.15918 30.0342L6.43555 29.1533L19.417 21.7744L19.418 23.8672ZM23.6934 17.1309L25.1738 17.9746V17.9756L31 21.2959L30.7812 25.5273L25.3721 22.4453L25.6318 28.2275L23.4697 29.5586L21.7988 30.5283L21.8164 16.0625L23.6934 17.1309ZM13.2607 22.7812L11.3652 23.8174L9.86719 24.6348V24.6338L3.97656 27.8506L0.24707 25.5781L5.71484 22.5928L0.341797 19.9512L0.202148 17.4922L0.148438 15.6201L13.2607 22.7812ZM30.9248 8.70605L25.4062 11.6025L30.7334 14.3301L30.8291 16.791L30.8516 18.6631L17.8662 11.292L19.7793 10.2861L27.2344 6.37402L30.9248 8.70605ZM9.1875 17.8545L7.30957 16.7871L5.82812 15.9443V15.9424L0 12.626L0.21582 8.39453L5.62598 11.4727L5.36328 5.69043L7.52344 4.3584L9.19336 3.3877L9.1875 17.8545ZM15.4482 6.03223L20.5293 2.90039L22.8184 4.01953L24.5332 4.91309L11.4922 12.1934L11.5088 10.1006L11.5762 1.95117L15.498 0L15.4482 6.03223Z" fill="black"></path>
</svg></svg></g></g><defs><clipPath id="SvgjsClipPath1113"><rect width="1000" height="1000" x="0" y="0" rx="200" ry="200"></rect></clipPath></defs></svg>